<svg version="1" xmlns="http://www.w3.org/2000/svg" width="800" height="800" viewBox="0 0 600.000000 600.000000"><path d="M278.9 3.4c-.2.2-3.8.7-7.9 1-7.1.6-9.6 1-16.5 2.1-1.6.3-5.7.9-9 1.5-13.2 2.2-40.6 9.8-51.5 14.3-1.4.5-2.9 1.1-3.5 1.2-.5.2-5.7 2.4-11.5 5C133.2 49.1 98.4 76 64.5 117.1c-14.1 17.1-33.3 49.7-41.4 70.4-1.3 3.3-3 7.3-3.7 9-4.1 9.6-12.9 41.2-14 50.2-.3 1.9-.6 3.9-.9 4.3-.2.3-.7 3.5-1.1 7.1-.3 3.5-.8 6.7-1 7.1-1.8 3-2.5 53.6-1 66.8.4 3.6.9 8.3 1.2 10.5 2 19.2 10.9 53 18.8 72 .9 2.2 2.4 5.8 3.4 8 3.5 8.6 15.2 30.5 21.2 40 18.6 29.3 39.1 52.1 68.5 76.4 16.1 13.3 47.3 31.6 69.1 40.7 19.8 8.2 50 17 66.9 19.4 3.9.5 26.2 1 49.6 1 37.5 0 44-.2 53.5-1.9 42.8-7.5 87.3-26.4 122.9-52.3 14.5-10.6 40-34.2 50.5-46.7 2.5-3 5-5.9 5.5-6.5.6-.6 3.1-3.8 5.6-7.1 18-23.7 32.3-49.4 42-75.3 4.5-12 10.1-29.7 11.3-35.7.2-1.1.9-4 1.5-6.5 1-4.3 1.5-7.1 2.6-13.5.3-1.7.7-4.1 1-5.5.2-1.4.7-5.2 1.1-8.5.3-3.3.8-6.9 1.1-8 .2-1.1.6-12.4.8-25 .3-21-.1-26.9-2.9-50-.6-4.8-5.3-27.7-6.6-32-7.8-25.6-14.2-42.2-22.3-58-19-37-43.8-68.1-76.8-96-1.4-1.2-5.1-4.1-8.4-6.5-3.3-2.5-6.2-4.7-6.5-5.1-.3-.3-5-3.5-10.5-7.1-23.1-15.1-44.3-25.4-70.9-34.5-10.8-3.7-30.6-8.8-37.6-9.8-2.5-.3-5.2-.8-6-1-1.6-.5-4.9-1-12-2-2.5-.4-5.8-.8-7.5-1.1-3.8-.6-52-1.5-52.6-1z"/></svg>